<svg width="28" height="32" viewBox="0 0 28 32" fill="none" xmlns="http://www.w3.org/2000/svg">
<path d="M0.838992 31.995C8.16199 29.584 18.782 23.969 26.167 18.953C26.787 18.531 27.271 18.14 27.271 17.458C27.271 16.276 25.063 14.687 23.995 14.052C18.182 19.995 6.61499 28.901 0.838992 31.995ZM7.63499 26.948C12.151 23.875 18.713 18.094 20.932 14.953C21.458 14.213 21.843 13.786 21.843 13.01C21.843 11.739 20.338 10.812 19.254 10.161C16.66 16.177 10.837 23.661 7.63399 26.947L7.63499 26.948ZM11.089 22.245C14.214 18.287 16.672 13.636 16.672 10.297C16.672 8.552 15.401 7.339 13.745 6.412C13.776 10.037 12.5 18.547 11.089 22.245ZM11.75 18.427C12.333 14.63 11.99 10.047 11.245 7.172C10.839 5.604 9.40599 3.839 8.07799 3.287C9.81799 8.146 11.312 15.062 11.75 18.427ZM10.464 13.099C9.09399 9.464 5.68299 1.88 0.666992 0C3.93299 3.547 8.77599 10.578 10.464 13.099Z" fill="white"/>
</svg>
